<svg width="22" height="22" viewBox="0 0 22 22" fill="none" xmlns="http://www.w3.org/2000/svg">
<path d="M6.5 0C2.915 0 0 2.915 0 6.5V15.5C0 19.085 2.915 22 6.5 22H15.5C19.085 22 22 19.085 22 15.5V6.5C22 2.915 19.085 0 15.5 0H6.5ZM17 4C17.55 4 18 4.45 18 5C18 5.55 17.55 6 17 6C16.45 6 16 5.55 16 5C16 4.45 16.45 4 17 4ZM11 5.5C14.035 5.5 16.5 7.965 16.5 11C16.5 14.035 14.035 16.5 11 16.5C7.965 16.5 5.5 14.035 5.5 11C5.5 7.965 7.965 5.5 11 5.5ZM11 6.5C8.52 6.5 6.5 8.52 6.5 11C6.5 13.48 8.52 15.5 11 15.5C13.48 15.5 15.5 13.48 15.5 11C15.5 8.52 13.48 6.5 11 6.5Z" fill="#F5F5F5"/>
</svg>
