<svg width="20" height="19" viewBox="0 0 20 19" fill="none" xmlns="http://www.w3.org/2000/svg">
<path d="M7.71875 13.75C6.35901 13.75 5.0298 13.3468 3.89921 12.5914C2.76862 11.8359 1.88743 10.7622 1.36708 9.50595C0.846729 8.24971 0.710581 6.86738 0.975854 5.53376C1.24113 4.20014 1.89591 2.97513 2.85739 2.01364C3.81888 1.05216 5.04389 0.397378 6.37751 0.132104C7.71113 -0.133169 9.09346 0.00297889 10.3497 0.523331C11.6059 1.04368 12.6797 1.92487 13.4351 3.05546C14.1905 4.18605 14.5938 5.51526 14.5938 6.875C14.5938 7.77784 14.4159 8.67184 14.0704 9.50595C13.7249 10.3401 13.2185 11.098 12.5801 11.7364C11.9417 12.3748 11.1838 12.8812 10.3497 13.2267C9.51559 13.5722 8.62159 13.75 7.71875 13.75ZM7.71875 1.25C6.60623 1.25 5.5187 1.5799 4.59367 2.19799C3.66864 2.81607 2.94767 3.69457 2.52193 4.72241C2.09619 5.75024 1.98479 6.88124 2.20184 7.97239C2.41888 9.06353 2.95461 10.0658 3.74128 10.8525C4.52795 11.6391 5.53023 12.1749 6.62137 12.3919C7.71251 12.609 8.84351 12.4976 9.87135 12.0718C10.8992 11.6461 11.7777 10.9251 12.3958 10.0001C13.0139 9.07506 13.3438 7.98752 13.3438 6.875C13.3438 6.13632 13.1983 5.40486 12.9156 4.72241C12.6329 4.03995 12.2186 3.41986 11.6962 2.89753C11.1739 2.3752 10.5538 1.96086 9.87135 1.67818C9.18889 1.3955 8.45744 1.25 7.71875 1.25Z" fill="#9D9D9D"/>
<path d="M18.0875 18.1251L11.7 11.7376L12.5812 10.8563L18.9687 17.2438C19.0851 17.3609 19.1504 17.5193 19.1504 17.6844C19.1504 17.8496 19.0851 18.008 18.9687 18.1251C18.8516 18.2415 18.6932 18.3068 18.5281 18.3068C18.363 18.3068 18.2046 18.2415 18.0875 18.1251Z" fill="#9D9D9D"/>
</svg>
