<svg width="58" height="63" viewBox="0 0 58 63" fill="none" xmlns="http://www.w3.org/2000/svg">
<path d="M44.9996 0.692444H4.99996C4.44696 0.692444 3.99997 1.14267 3.99997 1.6974V4.71228H0.999991C0.446996 4.71228 0 5.1625 0 5.71724V61.9949C0 62.5497 0.446996 62.9999 0.999991 62.9999H40.9996C41.5526 62.9999 41.9996 62.5497 41.9996 61.9949V58.9801H44.9996C45.5526 58.9801 45.9996 58.5298 45.9996 57.9751V1.6974C45.9996 1.14267 45.5526 0.692444 44.9996 0.692444ZM39.9997 60.99H1.99998V6.7222H31.9997V13.7569C31.9997 14.3116 32.4467 14.7619 32.9997 14.7619H39.9997V60.99ZM38.5857 12.752H33.9997V8.14321L38.5857 12.752ZM43.9996 56.9701H41.9996V13.7569C41.9996 13.4785 41.8876 13.2273 41.7056 13.0454L33.7077 5.00774C33.5267 4.82483 33.2767 4.71228 32.9997 4.71228H5.99995V2.70236H43.9996V56.9701Z" fill="#2F2323"/>
<path d="M27.9998 32.8511H4V34.861H27.9998V32.8511Z" fill="#2F2323"/>
<path d="M27.9991 28.8314H11.9993V30.8413H27.9991V28.8314Z" fill="#2F2323"/>
<path d="M27.9998 23.1428H4V25.1527H27.9998V23.1428Z" fill="#2F2323"/>
<path d="M27.9991 18.7817H11.9993V20.7916H27.9991V18.7817Z" fill="#2F2323"/>
<path d="M27.9998 52.9504H4V54.9603H27.9998V52.9504Z" fill="#2F2323"/>
<path d="M27.9991 48.9305H11.9993V50.9404H27.9991V48.9305Z" fill="#2F2323"/>
<path d="M27.9998 42.9006H4V44.9105H27.9998V42.9006Z" fill="#2F2323"/>
<path d="M27.9991 38.8809H11.9993V40.8908H27.9991V38.8809Z" fill="#2F2323"/>
<path d="M53 6.72231C50.243 6.72231 48 8.97643 48 11.7471V51.9455C48 52.0731 48.024 52.1997 48.071 52.3193L52.071 62.3689C52.224 62.7498 52.591 63 53 63C53.409 63 53.776 62.7498 53.9289 62.3689L57.9289 52.3193C57.9759 52.1997 57.9999 52.0731 57.9999 51.9455V11.7471C57.9999 8.97643 55.7569 6.72231 53 6.72231ZM53 8.73222C54.6539 8.73222 55.9999 10.0849 55.9999 11.7471V12.7521H50V11.7471C50 10.0849 51.346 8.73222 53 8.73222ZM50.477 52.9504H55.5229L54.7229 54.9603H51.277L50.477 52.9504ZM50 50.9405V18.7818H55.9999V50.9405H50ZM50 16.7719V14.762H55.9999V16.7719H50ZM53 59.2897L52.077 56.9703H53.9229L53 59.2897Z" fill="#2F2323"/>
<path d="M31.293 22.5072L33.293 24.5171C33.4809 24.707 33.7359 24.8115 33.9999 24.8115C34.0319 24.8115 34.0649 24.8105 34.0989 24.8065C34.3969 24.7774 34.6659 24.6146 34.8319 24.3643L38.8319 18.3346L37.1679 17.2201L33.8449 22.2298L32.707 21.0871L31.293 22.5072Z" fill="#E4000F"/>
<path d="M33.8449 32.2783L32.707 31.1357L31.293 32.5567L33.293 34.5666C33.4809 34.7566 33.7359 34.8611 33.9999 34.8611C34.0319 34.8611 34.0649 34.8601 34.0989 34.8561C34.3969 34.8269 34.6659 34.6641 34.8319 34.4139L38.8319 28.3841L37.1679 27.2696L33.8449 32.2783Z" fill="#E4000F"/>
<path d="M33.8449 42.3279L32.707 41.1853L31.293 42.6063L33.293 44.6162C33.4809 44.8061 33.7359 44.9106 33.9999 44.9106C34.0319 44.9106 34.0649 44.9096 34.0989 44.9056C34.3969 44.8765 34.6659 44.7137 34.8319 44.4634L38.8319 38.4337L37.1679 37.3192L33.8449 42.3279Z" fill="#E4000F"/>
<path d="M33.8449 52.3774L32.707 51.2348L31.293 52.6558L33.293 54.6657C33.4809 54.8557 33.7359 54.9602 33.9999 54.9602C34.0319 54.9602 34.0649 54.9592 34.0989 54.9552C34.3969 54.926 34.6659 54.7632 34.8319 54.513L38.8319 48.4832L37.1679 47.3687L33.8449 52.3774Z" fill="#E4000F"/>
</svg>
