<svg width="15" height="25" viewBox="0 0 15 25" fill="none" xmlns="http://www.w3.org/2000/svg">
<path d="M12.9077 24.4314L12.9075 24.4316L12.9147 24.4376C13.0934 24.5859 13.2886 24.6429 13.4735 24.6192C13.6558 24.5958 13.8123 24.4961 13.921 24.3603C14.1391 24.088 14.1792 23.6522 13.8627 23.313L13.8629 23.3128L13.8557 23.306L2.63341 12.7555L13.8557 2.20496L13.8557 2.20498L13.8579 2.20289C14.232 1.83683 14.2182 1.37842 13.9778 1.09485C13.8602 0.95612 13.6899 0.862896 13.4964 0.851233C13.3012 0.839472 13.0964 0.911289 12.9107 1.07686L12.9106 1.07683L12.9077 1.07954L1.08693 12.1928L1.08671 12.1926L1.08001 12.1997C0.937891 12.352 0.854338 12.5419 0.850161 12.7417C0.845961 12.9427 0.922405 13.1424 1.08001 13.3112L1.07978 13.3115L1.08693 13.3182L12.9077 24.4314Z" fill="#9D9D9D" stroke="#9D9D9D" stroke-width="0.3"/>
</svg>
