<svg width="15" height="25" viewBox="0 0 15 25" fill="none" xmlns="http://www.w3.org/2000/svg">
<path d="M2.09226 1.04293L2.09246 1.04272L2.08532 1.03679C1.90658 0.888452 1.7114 0.831462 1.52646 0.855177C1.34418 0.87855 1.18772 0.978284 1.07897 1.1141C0.860921 1.38638 0.820803 1.82219 1.13735 2.16138L1.13712 2.1616L1.14427 2.16833L12.3666 12.7189L1.14427 23.2694L1.14425 23.2694L1.14211 23.2715C0.767966 23.6375 0.78176 24.0959 1.02216 24.3795C1.13977 24.5182 1.31007 24.6115 1.50363 24.6231C1.6988 24.6349 1.90361 24.5631 2.08934 24.3975L2.08937 24.3975L2.09226 24.3948L13.9131 13.2816L13.9133 13.2818L13.92 13.2746C14.0621 13.1223 14.1457 12.9325 14.1498 12.7327C14.154 12.5317 14.0776 12.332 13.92 12.1631L13.9202 12.1629L13.9131 12.1562L2.09226 1.04293Z" fill="#9D9D9D" stroke="#9D9D9D" stroke-width="0.3"/>
</svg>
