<svg width="20" height="25" viewBox="0 0 20 25" fill="none" xmlns="http://www.w3.org/2000/svg">
<g clip-path="url(#clip0)">
<path d="M7.71875 14.75C6.35901 14.75 5.0298 14.3468 3.89921 13.5914C2.76862 12.8359 1.88743 11.7622 1.36708 10.506C0.846729 9.24971 0.710581 7.86738 0.975854 6.53376C1.24113 5.20014 1.89591 3.97513 2.85739 3.01364C3.81888 2.05216 5.04389 1.39738 6.37751 1.1321C7.71113 0.866831 9.09346 1.00298 10.3497 1.52333C11.6059 2.04368 12.6797 2.92487 13.4351 4.05546C14.1905 5.18605 14.5938 6.51526 14.5938 7.875C14.5938 8.77784 14.4159 9.67184 14.0704 10.506C13.7249 11.3401 13.2185 12.098 12.5801 12.7364C11.9417 13.3748 11.1838 13.8812 10.3497 14.2267C9.51559 14.5722 8.62159 14.75 7.71875 14.75ZM7.71875 2.25C6.60623 2.25 5.5187 2.5799 4.59367 3.19799C3.66864 3.81607 2.94767 4.69457 2.52193 5.72241C2.09619 6.75024 1.98479 7.88124 2.20184 8.97239C2.41888 10.0635 2.95461 11.0658 3.74128 11.8525C4.52795 12.6391 5.53023 13.1749 6.62137 13.3919C7.71251 13.609 8.84351 13.4976 9.87135 13.0718C10.8992 12.6461 11.7777 11.9251 12.3958 11.0001C13.0139 10.0751 13.3438 8.98752 13.3438 7.875C13.3438 7.13632 13.1983 6.40486 12.9156 5.72241C12.6329 5.03995 12.2186 4.41986 11.6962 3.89753C11.1739 3.3752 10.5538 2.96086 9.87135 2.67818C9.18889 2.3955 8.45744 2.25 7.71875 2.25Z" fill="#9D9D9D"/>
<path d="M18.0875 19.1251L11.7 12.7376L12.5812 11.8563L18.9687 18.2438C19.0851 18.3609 19.1504 18.5193 19.1504 18.6844C19.1504 18.8496 19.0851 19.008 18.9687 19.1251C18.8516 19.2415 18.6932 19.3068 18.5281 19.3068C18.363 19.3068 18.2046 19.2415 18.0875 19.1251Z" fill="#9D9D9D"/>
</g>
<defs>
<clipPath id="clip0">
<rect width="20" height="25" fill="white"/>
</clipPath>
</defs>
</svg>
