<svg width="24" height="30" viewBox="0 0 24 30" fill="none" xmlns="http://www.w3.org/2000/svg">
<g clip-path="url(#clip0)">
<path d="M13 20H7C6.73478 20 6.48043 19.8946 6.29289 19.7071C6.10536 19.5196 6 19.2652 6 19V3C6 2.73478 6.10536 2.48043 6.29289 2.29289C6.48043 2.10536 6.73478 2 7 2H13C13.2652 2 13.5196 1.89464 13.7071 1.70711C13.8946 1.51957 14 1.26522 14 1C14 0.734784 13.8946 0.48043 13.7071 0.292893C13.5196 0.105357 13.2652 0 13 0H7C6.20435 0 5.44129 0.31607 4.87868 0.87868C4.31607 1.44129 4 2.20435 4 3V19C4 19.7956 4.31607 20.5587 4.87868 21.1213C5.44129 21.6839 6.20435 22 7 22H13C13.2652 22 13.5196 21.8946 13.7071 21.7071C13.8946 21.5196 14 21.2652 14 21C14 20.7348 13.8946 20.4804 13.7071 20.2929C13.5196 20.1054 13.2652 20 13 20Z" fill="#F5F5F5"/>
<path d="M20.92 11.3841C21.02 11.1406 21.02 10.8676 20.92 10.6241C20.8724 10.5013 20.801 10.3892 20.71 10.2941L16.71 6.29409C16.6168 6.20085 16.5061 6.12689 16.3842 6.07643C16.2624 6.02597 16.1319 6 16 6C15.7337 6 15.4783 6.10579 15.29 6.29409C15.1968 6.38733 15.1228 6.49802 15.0723 6.61984C15.0219 6.74166 14.9959 6.87223 14.9959 7.00409C14.9959 7.27039 15.1017 7.52579 15.29 7.71409L17.59 10.0041H11C10.7348 10.0041 10.4804 10.1094 10.2929 10.297C10.1054 10.4845 10 10.7389 10 11.0041C10 11.2693 10.1054 11.5237 10.2929 11.7112C10.4804 11.8987 10.7348 12.0041 11 12.0041H17.59L15.29 14.2941C15.1963 14.3871 15.1219 14.4977 15.0711 14.6195C15.0203 14.7414 14.9942 14.8721 14.9942 15.0041C14.9942 15.1361 15.0203 15.2668 15.0711 15.3887C15.1219 15.5105 15.1963 15.6211 15.29 15.7141C15.383 15.8078 15.4936 15.8822 15.6154 15.933C15.7373 15.9838 15.868 16.0099 16 16.0099C16.132 16.0099 16.2627 15.9838 16.3846 15.933C16.5064 15.8822 16.617 15.8078 16.71 15.7141L20.71 11.7141C20.801 11.619 20.8724 11.5068 20.92 11.3841Z" fill="#F5F5F5"/>
</g>
<defs>
<clipPath id="clip0">
<rect width="24" height="30" fill="white"/>
</clipPath>
</defs>
</svg>
