<svg width="20" height="19" viewBox="0 0 20 19" fill="none" xmlns="http://www.w3.org/2000/svg">
<path d="M15.8525 19H3.1779C3.02692 19.0022 2.88012 18.9504 2.76394 18.854C2.64775 18.7575 2.56982 18.6228 2.54416 18.474L0.00923622 3.89815C-0.00660522 3.80638 -0.00202668 3.71225 0.0226461 3.62245C0.047319 3.53265 0.0914797 3.44939 0.151986 3.3786C0.212492 3.30781 0.287857 3.25122 0.372719 3.21286C0.45758 3.17451 0.549851 3.15533 0.642968 3.15668H5.76986C5.93794 3.15668 6.09913 3.22345 6.21798 3.3423C6.33683 3.46115 6.40359 3.62234 6.40359 3.79042C6.40359 3.95849 6.33683 4.11968 6.21798 4.23853C6.09913 4.35738 5.93794 4.42415 5.76986 4.42415H1.39711L3.71023 17.7325H15.3202L17.6333 4.42415H13.2606C13.0925 4.42415 12.9313 4.35738 12.8125 4.23853C12.6936 4.11968 12.6268 3.95849 12.6268 3.79042C12.6268 3.62234 12.6936 3.46115 12.8125 3.3423C12.9313 3.22345 13.0925 3.15668 13.2606 3.15668H18.3875C18.4806 3.15533 18.5729 3.17451 18.6577 3.21286C18.7426 3.25122 18.8179 3.30781 18.8785 3.3786C18.939 3.44939 18.9831 3.53265 19.0078 3.62245C19.0325 3.71225 19.037 3.80638 19.0212 3.89815L16.4863 18.474C16.4606 18.6228 16.3827 18.7575 16.2665 18.854C16.1503 18.9504 16.0035 19.0022 15.8525 19Z" fill="#E4000F"/>
<path d="M13.2605 4.42409H5.7698C5.67826 4.4241 5.58781 4.40428 5.50467 4.36599C5.42152 4.3277 5.34766 4.27185 5.28816 4.20229C5.228 4.13247 5.1838 4.05037 5.15862 3.96172C5.13345 3.87306 5.12791 3.77998 5.1424 3.68897C5.31874 2.65694 5.85442 1.72054 6.65467 1.04542C7.45493 0.370312 8.46817 0 9.51516 0C10.5621 0 11.5754 0.370312 12.3756 1.04542C13.1759 1.72054 13.7116 2.65694 13.8879 3.68897C13.9024 3.77998 13.8969 3.87306 13.8717 3.96172C13.8465 4.05037 13.8023 4.13247 13.7421 4.20229C13.6826 4.27185 13.6088 4.3277 13.5256 4.36599C13.4425 4.40428 13.352 4.4241 13.2605 4.42409ZM6.61266 3.15663H12.4176C12.1706 2.59251 11.7645 2.11261 11.249 1.77562C10.7335 1.43864 10.131 1.25917 9.51516 1.25917C8.8993 1.25917 8.29679 1.43864 7.78131 1.77562C7.26584 2.11261 6.85973 2.59251 6.61266 3.15663Z" fill="#E4000F"/>
<path d="M13.3176 8.22645H5.71283C5.54476 8.22645 5.38357 8.15968 5.26472 8.04083C5.14587 7.92198 5.0791 7.76079 5.0791 7.59272C5.0791 7.42464 5.14587 7.26345 5.26472 7.1446C5.38357 7.02575 5.54476 6.95898 5.71283 6.95898H13.3176C13.4857 6.95898 13.6469 7.02575 13.7657 7.1446C13.8846 7.26345 13.9514 7.42464 13.9514 7.59272C13.9514 7.76079 13.8846 7.92198 13.7657 8.04083C13.6469 8.15968 13.4857 8.22645 13.3176 8.22645Z" fill="#E4000F"/>
<path d="M13.3176 12.0289H5.71283C5.54476 12.0289 5.38357 11.9622 5.26472 11.8433C5.14587 11.7245 5.0791 11.5633 5.0791 11.3952C5.0791 11.2271 5.14587 11.0659 5.26472 10.9471C5.38357 10.8282 5.54476 10.7615 5.71283 10.7615H13.3176C13.4857 10.7615 13.6469 10.8282 13.7657 10.9471C13.8846 11.0659 13.9514 11.2271 13.9514 11.3952C13.9514 11.5633 13.8846 11.7245 13.7657 11.8433C13.6469 11.9622 13.4857 12.0289 13.3176 12.0289Z" fill="#E4000F"/>
</svg>
