<svg width="24" height="16" viewBox="0 0 24 16" fill="none" xmlns="http://www.w3.org/2000/svg">
<path d="M23.8728 13.9798C23.8437 13.9119 23.8166 13.8556 23.7915 13.8106C23.3751 12.9981 22.5793 12.0009 21.4047 10.8186L21.3799 10.7915L21.3675 10.7783L21.3549 10.7647H21.3423C20.8093 10.2141 20.4717 9.84397 20.3303 9.65445C20.0716 9.29344 20.0137 8.92802 20.1551 8.55776C20.2549 8.27802 20.6301 7.68723 21.2797 6.78461C21.6214 6.30625 21.892 5.92285 22.0918 5.63401C23.5331 3.55821 24.158 2.23175 23.9663 1.6541L23.8919 1.51911C23.8418 1.43784 23.7127 1.3635 23.5047 1.29569C23.2962 1.22803 23.0297 1.21684 22.7047 1.26194L19.106 1.28887C19.0477 1.26649 18.9645 1.26857 18.856 1.29569C18.7477 1.32282 18.6935 1.33642 18.6935 1.33642L18.6309 1.37032L18.5812 1.41105C18.5395 1.43798 18.4937 1.48535 18.4436 1.55306C18.3939 1.62053 18.3523 1.69971 18.319 1.78994C17.9272 2.88194 17.4817 3.89722 16.9818 4.83574C16.6735 5.39537 16.3904 5.88037 16.1319 6.29103C15.8737 6.70154 15.6571 7.00399 15.4823 7.19787C15.3073 7.39194 15.1493 7.54741 15.0074 7.66486C14.8657 7.78235 14.7575 7.83199 14.6827 7.81383C14.6076 7.79567 14.5369 7.77765 14.47 7.75964C14.3534 7.67837 14.2597 7.56785 14.189 7.42797C14.118 7.2881 14.0702 7.11205 14.0452 6.89997C14.0204 6.68774 14.0057 6.5052 14.0015 6.35172C13.9976 6.19843 13.9994 5.9816 14.0078 5.70186C14.0165 5.42197 14.0204 5.2326 14.0204 5.13331C14.0204 4.79032 14.0265 4.41807 14.0389 4.01647C14.0515 3.61487 14.0617 3.29667 14.0703 3.06226C14.0788 2.8276 14.0827 2.57934 14.0827 2.31761C14.0827 2.05589 14.068 1.85063 14.0389 1.70166C14.0102 1.55287 13.9661 1.40845 13.9081 1.26843C13.8496 1.12856 13.7641 1.02036 13.6519 0.943548C13.5395 0.866832 13.3997 0.805952 13.2333 0.760719C12.7917 0.652472 12.2295 0.593915 11.5462 0.584812C9.99683 0.566794 9.00126 0.675183 8.55974 0.909837C8.3848 1.00898 8.22649 1.14444 8.08495 1.3158C7.93496 1.51442 7.91404 1.62281 8.02232 1.64063C8.52223 1.72176 8.87613 1.91583 9.08442 2.22264L9.15948 2.38523C9.21786 2.50253 9.27616 2.7102 9.3345 3.00797C9.39275 3.30573 9.43035 3.63512 9.44689 3.99594C9.48847 4.65485 9.48847 5.21889 9.44689 5.68811C9.40518 6.15751 9.36579 6.52293 9.3282 6.78466C9.2906 7.04638 9.23441 7.25847 9.15948 7.42086C9.08442 7.5833 9.03448 7.68259 9.00944 7.71862C8.98445 7.75466 8.96362 7.77737 8.94708 7.78628C8.8388 7.83123 8.72618 7.85413 8.60963 7.85413C8.4929 7.85413 8.35136 7.79088 8.18478 7.66448C8.01825 7.53807 7.84542 7.36444 7.66628 7.1433C7.48714 6.92211 7.28511 6.61302 7.0601 6.21597C6.83527 5.81892 6.60199 5.34966 6.3604 4.80819L6.16052 4.41551C6.03556 4.16288 5.86487 3.79504 5.64827 3.31232C5.43153 2.8294 5.23996 2.36228 5.07343 1.91104C5.00686 1.72152 4.90685 1.57724 4.77358 1.47796L4.71104 1.43723C4.66946 1.40119 4.60272 1.36293 4.51116 1.32215C4.41946 1.28142 4.32379 1.25221 4.22374 1.23424L0.799886 1.26118C0.450013 1.26118 0.21262 1.34704 0.0876216 1.51854L0.0375959 1.59967C0.0126049 1.64485 0 1.71702 0 1.81635C0 1.91564 0.024991 2.03749 0.0750167 2.18177C0.574836 3.45437 1.11838 4.68169 1.70564 5.86392C2.29291 7.04615 2.80323 7.99846 3.23631 8.72001C3.66947 9.44209 4.11099 10.1236 4.56087 10.7641C5.01076 11.4049 5.30855 11.8156 5.45425 11.996C5.60012 12.1768 5.7147 12.3119 5.79799 12.4021L6.11045 12.7269C6.31037 12.9436 6.60396 13.203 6.99135 13.5053C7.37882 13.8078 7.80778 14.1055 8.27845 14.3991C8.7492 14.6921 9.29686 14.9313 9.92172 15.1162C10.5465 15.3014 11.1546 15.3757 11.7461 15.3399H13.1832C13.4746 15.3126 13.6954 15.2133 13.8455 15.042L13.8952 14.9741C13.9286 14.9202 13.9599 14.8366 13.9888 14.7239C14.0181 14.6111 14.0326 14.4869 14.0326 14.3517C14.0241 13.9637 14.0513 13.614 14.1136 13.3027C14.1759 12.9915 14.2469 12.7568 14.3263 12.5988C14.4057 12.4409 14.4952 12.3077 14.5949 12.1997C14.6947 12.0914 14.7659 12.0258 14.8077 12.0033C14.8491 11.9806 14.8823 11.9651 14.9073 11.9559C15.1072 11.8837 15.3425 11.9536 15.6135 12.1659C15.8843 12.378 16.1383 12.6398 16.3758 12.9511C16.6133 13.2626 16.8985 13.6121 17.2317 14.0001C17.5651 14.3882 17.8566 14.6767 18.1064 14.8665L18.3562 15.029C18.523 15.1373 18.7396 15.2366 19.0063 15.3269C19.2724 15.417 19.5056 15.4396 19.7058 15.3945L22.9046 15.3405C23.221 15.3405 23.4672 15.2837 23.6419 15.1711C23.8168 15.0583 23.9208 14.934 23.9543 14.7989C23.9877 14.6635 23.9895 14.51 23.9607 14.3384C23.931 14.1672 23.9018 14.0474 23.8728 13.9798Z" fill="#F5F5F5"/>
</svg>
