<svg width="28" height="23" viewBox="0 0 28 23" fill="none" xmlns="http://www.w3.org/2000/svg">
<path d="M14 0C9.492 0 3.64093 1.0964 3.64093 1.0964L3.6262 1.11274C1.57302 1.43148 0 3.14406 0 5.22681V11.499V11.501V17.7712V17.7732C0.00200357 18.7679 0.369245 19.7293 1.03578 20.4848C1.70232 21.2404 2.62449 21.7405 3.63672 21.8954L3.64093 21.9016C3.64093 21.9016 9.492 23 14 23C18.508 23 24.3591 21.9016 24.3591 21.9016L24.3612 21.8995C25.3745 21.7449 26.2977 21.2444 26.9648 20.488C27.6318 19.7315 27.9989 18.7689 28 17.7732V17.7712V11.501V11.499V5.22681C27.9985 4.23176 27.6315 3.26984 26.9649 2.51389C26.2983 1.75795 25.3759 1.25752 24.3633 1.10253L24.3591 1.0964C24.3591 1.0964 18.508 0 14 0ZM10.7692 6.68868L19.3846 11.499L10.7692 16.3093V6.68868Z" fill="#F5F5F5"/>
</svg>
